ISO-10303-21;
HEADER;
/* Generated by software containing ST-Developer
 * from STEP Tools, Inc. (www.steptools.com) 
 */
/* OPTION: using custom renumber hook */

FILE_DESCRIPTION(
/* description */ ('STEP AP242 Edition 2',
'CAx-IF Rec.Pracs.---Representation and Presentation of Product Manufa
cturing Information (PMI)---4.0---2014-10-13',
'CAx-IF Rec.Pracs.---3D Tessellated Geometry---0.4---2014-09-14','2;1',
'CAx-IF Rec.Pracs.---User Defined Attributes---1.5---2016-08-15'),
/* implementation_level */ '2;1');

FILE_NAME(
/* name */ 'Part Studio 1',
/* time_stamp */ '2026-08-04T16:59:28Z',
/* author */ (''),
/* organization */ (''),
/* preprocessor_version */ 'ST-DEVELOPER v20',
/* originating_system */ 'ONSHAPE BY PTC INC, 1.218',
/* authorisation */ '  ');

FILE_SCHEMA (('AP242_MANAGED_MODEL_BASED_3D_ENGINEERING_MIM_LF { 1 0 10303 442 3 1 4 }'));
ENDSEC;

DATA;
#10=SHAPE_REPRESENTATION_RELATIONSHIP('','',#667,#11);
#11=ADVANCED_BREP_SHAPE_REPRESENTATION('',(#665),#1133);
#12=TOROIDAL_SURFACE('',#725,0.003,0.0015);
#13=TOROIDAL_SURFACE('',#732,0.003,0.0015);
#14=TOROIDAL_SURFACE('',#734,0.003,0.0015);
#15=TOROIDAL_SURFACE('',#740,0.003,0.0015);
#16=CYLINDRICAL_SURFACE('',#691,0.0042);
#17=CYLINDRICAL_SURFACE('',#694,0.0042);
#18=CYLINDRICAL_SURFACE('',#708,0.0015);
#19=CYLINDRICAL_SURFACE('',#711,0.0015);
#20=CYLINDRICAL_SURFACE('',#714,0.0015);
#21=CYLINDRICAL_SURFACE('',#717,0.0015);
#22=CYLINDRICAL_SURFACE('',#719,0.0026556349186104);
#23=CYLINDRICAL_SURFACE('',#720,0.0026556349186104);
#24=CYLINDRICAL_SURFACE('',#721,0.0026556349186104);
#25=CYLINDRICAL_SURFACE('',#722,0.0026556349186104);
#26=CYLINDRICAL_SURFACE('',#723,0.00145);
#27=CYLINDRICAL_SURFACE('',#724,0.00145);
#28=CYLINDRICAL_SURFACE('',#728,0.0015);
#29=CYLINDRICAL_SURFACE('',#730,0.0015);
#30=CYLINDRICAL_SURFACE('',#736,0.0015);
#31=CYLINDRICAL_SURFACE('',#738,0.0015);
#32=CIRCLE('',#670,0.0015);
#33=CIRCLE('',#671,0.0015);
#34=CIRCLE('',#672,0.0015);
#35=CIRCLE('',#673,0.0015);
#36=CIRCLE('',#675,0.003);
#37=CIRCLE('',#676,0.003);
#38=CIRCLE('',#677,0.003);
#39=CIRCLE('',#678,0.003);
#40=CIRCLE('',#680,0.00145);
#41=CIRCLE('',#681,0.00145);
#42=CIRCLE('',#682,0.0026556349186104);
#43=CIRCLE('',#683,0.0026556349186104);
#44=CIRCLE('',#684,0.0026556349186104);
#45=CIRCLE('',#685,0.0026556349186104);
#46=CIRCLE('',#692,0.0042);
#47=CIRCLE('',#693,0.0042);
#48=CIRCLE('',#695,0.0042);
#49=CIRCLE('',#696,0.0042);
#50=CIRCLE('',#701,0.0026556349186104);
#51=CIRCLE('',#702,0.0026556349186104);
#52=CIRCLE('',#703,0.0026556349186104);
#53=CIRCLE('',#704,0.0026556349186104);
#54=CIRCLE('',#706,0.00145);
#55=CIRCLE('',#707,0.00145);
#56=CIRCLE('',#709,0.0015);
#57=CIRCLE('',#712,0.0015);
#58=CIRCLE('',#715,0.0015);
#59=CIRCLE('',#718,0.0015);
#60=CIRCLE('',#726,0.0015);
#61=CIRCLE('',#727,0.0015);
#62=CIRCLE('',#729,0.0015);
#63=CIRCLE('',#731,0.0015);
#64=CIRCLE('',#733,0.0015);
#65=CIRCLE('',#735,0.0015);
#66=CIRCLE('',#737,0.0015);
#67=CIRCLE('',#739,0.0015);
#68=ORIENTED_EDGE('',*,*,#252,.F.);
#69=ORIENTED_EDGE('',*,*,#253,.T.);
#70=ORIENTED_EDGE('',*,*,#254,.F.);
#71=ORIENTED_EDGE('',*,*,#255,.T.);
#72=ORIENTED_EDGE('',*,*,#256,.T.);
#73=ORIENTED_EDGE('',*,*,#257,.T.);
#74=ORIENTED_EDGE('',*,*,#258,.F.);
#75=ORIENTED_EDGE('',*,*,#259,.F.);
#76=ORIENTED_EDGE('',*,*,#260,.T.);
#77=ORIENTED_EDGE('',*,*,#261,.T.);
#78=ORIENTED_EDGE('',*,*,#262,.F.);
#79=ORIENTED_EDGE('',*,*,#263,.T.);
#80=ORIENTED_EDGE('',*,*,#264,.T.);
#81=ORIENTED_EDGE('',*,*,#265,.T.);
#82=ORIENTED_EDGE('',*,*,#266,.T.);
#83=ORIENTED_EDGE('',*,*,#267,.T.);
#84=ORIENTED_EDGE('',*,*,#268,.T.);
#85=ORIENTED_EDGE('',*,*,#269,.T.);
#86=ORIENTED_EDGE('',*,*,#270,.T.);
#87=ORIENTED_EDGE('',*,*,#271,.T.);
#88=ORIENTED_EDGE('',*,*,#272,.F.);
#89=ORIENTED_EDGE('',*,*,#273,.T.);
#90=ORIENTED_EDGE('',*,*,#274,.T.);
#91=ORIENTED_EDGE('',*,*,#275,.T.);
#92=ORIENTED_EDGE('',*,*,#276,.T.);
#93=ORIENTED_EDGE('',*,*,#277,.T.);
#94=ORIENTED_EDGE('',*,*,#274,.F.);
#95=ORIENTED_EDGE('',*,*,#278,.T.);
#96=ORIENTED_EDGE('',*,*,#279,.T.);
#97=ORIENTED_EDGE('',*,*,#280,.T.);
#98=ORIENTED_EDGE('',*,*,#281,.T.);
#99=ORIENTED_EDGE('',*,*,#282,.T.);
#100=ORIENTED_EDGE('',*,*,#283,.F.);
#101=ORIENTED_EDGE('',*,*,#284,.T.);
#102=ORIENTED_EDGE('',*,*,#259,.T.);
#103=ORIENTED_EDGE('',*,*,#285,.T.);
#104=ORIENTED_EDGE('',*,*,#286,.F.);
#105=ORIENTED_EDGE('',*,*,#287,.F.);
#106=ORIENTED_EDGE('',*,*,#288,.F.);
#107=ORIENTED_EDGE('',*,*,#289,.F.);
#108=ORIENTED_EDGE('',*,*,#290,.T.);
#109=ORIENTED_EDGE('',*,*,#291,.T.);
#110=ORIENTED_EDGE('',*,*,#292,.F.);
#111=ORIENTED_EDGE('',*,*,#291,.F.);
#112=ORIENTED_EDGE('',*,*,#293,.T.);
#113=ORIENTED_EDGE('',*,*,#294,.T.);
#114=ORIENTED_EDGE('',*,*,#295,.T.);
#115=ORIENTED_EDGE('',*,*,#296,.T.);
#116=ORIENTED_EDGE('',*,*,#294,.F.);
#117=ORIENTED_EDGE('',*,*,#297,.F.);
#118=ORIENTED_EDGE('',*,*,#286,.T.);
#119=ORIENTED_EDGE('',*,*,#298,.T.);
#120=ORIENTED_EDGE('',*,*,#299,.F.);
#121=ORIENTED_EDGE('',*,*,#300,.F.);
#122=ORIENTED_EDGE('',*,*,#301,.F.);
#123=ORIENTED_EDGE('',*,*,#295,.F.);
#124=ORIENTED_EDGE('',*,*,#302,.T.);
#125=ORIENTED_EDGE('',*,*,#299,.T.);
#126=ORIENTED_EDGE('',*,*,#303,.F.);
#127=ORIENTED_EDGE('',*,*,#261,.F.);
#128=ORIENTED_EDGE('',*,*,#304,.T.);
#129=ORIENTED_EDGE('',*,*,#289,.T.);
#130=ORIENTED_EDGE('',*,*,#305,.T.);
#131=ORIENTED_EDGE('',*,*,#306,.T.);
#132=ORIENTED_EDGE('',*,*,#281,.F.);
#133=ORIENTED_EDGE('',*,*,#307,.T.);
#134=ORIENTED_EDGE('',*,*,#279,.F.);
#135=ORIENTED_EDGE('',*,*,#308,.T.);
#136=ORIENTED_EDGE('',*,*,#309,.T.);
#137=ORIENTED_EDGE('',*,*,#310,.T.);
#138=ORIENTED_EDGE('',*,*,#311,.F.);
#139=ORIENTED_EDGE('',*,*,#312,.T.);
#140=ORIENTED_EDGE('',*,*,#283,.T.);
#141=ORIENTED_EDGE('',*,*,#313,.T.);
#142=ORIENTED_EDGE('',*,*,#309,.F.);
#143=ORIENTED_EDGE('',*,*,#314,.T.);
#144=ORIENTED_EDGE('',*,*,#272,.T.);
#145=ORIENTED_EDGE('',*,*,#315,.T.);
#146=ORIENTED_EDGE('',*,*,#311,.T.);
#147=ORIENTED_EDGE('',*,*,#316,.T.);
#148=ORIENTED_EDGE('',*,*,#305,.F.);
#149=ORIENTED_EDGE('',*,*,#317,.T.);
#150=ORIENTED_EDGE('',*,*,#260,.F.);
#151=ORIENTED_EDGE('',*,*,#287,.T.);
#152=ORIENTED_EDGE('',*,*,#300,.T.);
#153=ORIENTED_EDGE('',*,*,#302,.F.);
#154=ORIENTED_EDGE('',*,*,#297,.T.);
#155=ORIENTED_EDGE('',*,*,#293,.F.);
#156=ORIENTED_EDGE('',*,*,#290,.F.);
#157=ORIENTED_EDGE('',*,*,#304,.F.);
#158=ORIENTED_EDGE('',*,*,#318,.F.);
#159=ORIENTED_EDGE('',*,*,#319,.F.);
#160=ORIENTED_EDGE('',*,*,#320,.T.);
#161=ORIENTED_EDGE('',*,*,#321,.T.);
#162=ORIENTED_EDGE('',*,*,#322,.F.);
#163=ORIENTED_EDGE('',*,*,#262,.T.);
#164=ORIENTED_EDGE('',*,*,#303,.T.);
#165=ORIENTED_EDGE('',*,*,#288,.T.);
#166=ORIENTED_EDGE('',*,*,#292,.T.);
#167=ORIENTED_EDGE('',*,*,#296,.F.);
#168=ORIENTED_EDGE('',*,*,#301,.T.);
#169=ORIENTED_EDGE('',*,*,#298,.F.);
#170=ORIENTED_EDGE('',*,*,#285,.F.);
#171=ORIENTED_EDGE('',*,*,#258,.T.);
#172=ORIENTED_EDGE('',*,*,#323,.T.);
#173=ORIENTED_EDGE('',*,*,#324,.T.);
#174=ORIENTED_EDGE('',*,*,#325,.F.);
#175=ORIENTED_EDGE('',*,*,#253,.F.);
#176=ORIENTED_EDGE('',*,*,#325,.T.);
#177=ORIENTED_EDGE('',*,*,#326,.T.);
#178=ORIENTED_EDGE('',*,*,#327,.F.);
#179=ORIENTED_EDGE('',*,*,#254,.T.);
#180=ORIENTED_EDGE('',*,*,#327,.T.);
#181=ORIENTED_EDGE('',*,*,#328,.T.);
#182=ORIENTED_EDGE('',*,*,#329,.F.);
#183=ORIENTED_EDGE('',*,*,#255,.F.);
#184=ORIENTED_EDGE('',*,*,#329,.T.);
#185=ORIENTED_EDGE('',*,*,#330,.T.);
#186=ORIENTED_EDGE('',*,*,#331,.F.);
#187=ORIENTED_EDGE('',*,*,#256,.F.);
#188=ORIENTED_EDGE('',*,*,#331,.T.);
#189=ORIENTED_EDGE('',*,*,#332,.T.);
#190=ORIENTED_EDGE('',*,*,#320,.F.);
#191=ORIENTED_EDGE('',*,*,#257,.F.);
#192=ORIENTED_EDGE('',*,*,#333,.T.);
#193=ORIENTED_EDGE('',*,*,#334,.T.);
#194=ORIENTED_EDGE('',*,*,#323,.F.);
#195=ORIENTED_EDGE('',*,*,#252,.T.);
#196=ORIENTED_EDGE('',*,*,#322,.T.);
#197=ORIENTED_EDGE('',*,*,#335,.T.);
#198=ORIENTED_EDGE('',*,*,#333,.F.);
#199=ORIENTED_EDGE('',*,*,#263,.F.);
#200=ORIENTED_EDGE('',*,*,#314,.F.);
#201=ORIENTED_EDGE('',*,*,#308,.F.);
#202=ORIENTED_EDGE('',*,*,#278,.F.);
#203=ORIENTED_EDGE('',*,*,#273,.F.);
#204=ORIENTED_EDGE('',*,*,#315,.F.);
#205=ORIENTED_EDGE('',*,*,#275,.F.);
#206=ORIENTED_EDGE('',*,*,#284,.F.);
#207=ORIENTED_EDGE('',*,*,#312,.F.);
#208=ORIENTED_EDGE('',*,*,#316,.F.);
#209=ORIENTED_EDGE('',*,*,#313,.F.);
#210=ORIENTED_EDGE('',*,*,#282,.F.);
#211=ORIENTED_EDGE('',*,*,#306,.F.);
#212=ORIENTED_EDGE('',*,*,#317,.F.);
#213=ORIENTED_EDGE('',*,*,#307,.F.);
#214=ORIENTED_EDGE('',*,*,#280,.F.);
#215=ORIENTED_EDGE('',*,*,#310,.F.);
#216=ORIENTED_EDGE('',*,*,#319,.T.);
#217=ORIENTED_EDGE('',*,*,#277,.F.);
#218=ORIENTED_EDGE('',*,*,#318,.T.);
#219=ORIENTED_EDGE('',*,*,#276,.F.);
#220=ORIENTED_EDGE('',*,*,#336,.F.);
#221=ORIENTED_EDGE('',*,*,#269,.F.);
#222=ORIENTED_EDGE('',*,*,#337,.F.);
#223=ORIENTED_EDGE('',*,*,#335,.F.);
#224=ORIENTED_EDGE('',*,*,#337,.T.);
#225=ORIENTED_EDGE('',*,*,#268,.F.);
#226=ORIENTED_EDGE('',*,*,#338,.F.);
#227=ORIENTED_EDGE('',*,*,#334,.F.);
#228=ORIENTED_EDGE('',*,*,#336,.T.);
#229=ORIENTED_EDGE('',*,*,#321,.F.);
#230=ORIENTED_EDGE('',*,*,#339,.F.);
#231=ORIENTED_EDGE('',*,*,#270,.F.);
#232=ORIENTED_EDGE('',*,*,#338,.T.);
#233=ORIENTED_EDGE('',*,*,#267,.F.);
#234=ORIENTED_EDGE('',*,*,#340,.F.);
#235=ORIENTED_EDGE('',*,*,#324,.F.);
#236=ORIENTED_EDGE('',*,*,#339,.T.);
#237=ORIENTED_EDGE('',*,*,#332,.F.);
#238=ORIENTED_EDGE('',*,*,#341,.F.);
#239=ORIENTED_EDGE('',*,*,#271,.F.);
#240=ORIENTED_EDGE('',*,*,#340,.T.);
#241=ORIENTED_EDGE('',*,*,#266,.F.);
#242=ORIENTED_EDGE('',*,*,#342,.F.);
#243=ORIENTED_EDGE('',*,*,#326,.F.);
#244=ORIENTED_EDGE('',*,*,#341,.T.);
#245=ORIENTED_EDGE('',*,*,#330,.F.);
#246=ORIENTED_EDGE('',*,*,#343,.F.);
#247=ORIENTED_EDGE('',*,*,#264,.F.);
#248=ORIENTED_EDGE('',*,*,#342,.T.);
#249=ORIENTED_EDGE('',*,*,#265,.F.);
#250=ORIENTED_EDGE('',*,*,#343,.T.);
#251=ORIENTED_EDGE('',*,*,#328,.F.);
#252=EDGE_CURVE('',#344,#345,#404,.T.);
#253=EDGE_CURVE('',#344,#346,#32,.F.);
#254=EDGE_CURVE('',#347,#346,#405,.T.);
#255=EDGE_CURVE('',#347,#348,#33,.F.);
#256=EDGE_CURVE('',#348,#349,#406,.T.);
#257=EDGE_CURVE('',#349,#350,#34,.F.);
#258=EDGE_CURVE('',#351,#350,#407,.T.);
#259=EDGE_CURVE('',#352,#351,#408,.T.);
#260=EDGE_CURVE('',#352,#353,#409,.T.);
#261=EDGE_CURVE('',#353,#354,#410,.T.);
#262=EDGE_CURVE('',#355,#354,#411,.T.);
#263=EDGE_CURVE('',#355,#345,#35,.F.);
#264=EDGE_CURVE('',#356,#357,#412,.F.);
#265=EDGE_CURVE('',#357,#358,#36,.T.);
#266=EDGE_CURVE('',#358,#359,#413,.T.);
#267=EDGE_CURVE('',#359,#360,#37,.T.);
#268=EDGE_CURVE('',#360,#361,#414,.T.);
#269=EDGE_CURVE('',#361,#362,#38,.T.);
#270=EDGE_CURVE('',#362,#363,#415,.F.);
#271=EDGE_CURVE('',#363,#356,#39,.T.);
#272=EDGE_CURVE('',#364,#365,#416,.T.);
#273=EDGE_CURVE('',#364,#366,#417,.T.);
#274=EDGE_CURVE('',#366,#367,#418,.T.);
#275=EDGE_CURVE('',#367,#365,#419,.F.);
#276=EDGE_CURVE('',#368,#368,#40,.T.);
#277=EDGE_CURVE('',#369,#369,#41,.T.);
#278=EDGE_CURVE('',#366,#370,#42,.F.);
#279=EDGE_CURVE('',#370,#371,#420,.T.);
#280=EDGE_CURVE('',#371,#372,#43,.F.);
#281=EDGE_CURVE('',#372,#373,#421,.T.);
#282=EDGE_CURVE('',#373,#374,#44,.F.);
#283=EDGE_CURVE('',#375,#374,#422,.T.);
#284=EDGE_CURVE('',#375,#367,#45,.F.);
#285=EDGE_CURVE('',#351,#376,#423,.T.);
#286=EDGE_CURVE('',#377,#376,#424,.T.);
#287=EDGE_CURVE('',#352,#377,#425,.T.);
#288=EDGE_CURVE('',#378,#379,#426,.T.);
#289=EDGE_CURVE('',#380,#378,#427,.T.);
#290=EDGE_CURVE('',#380,#381,#428,.T.);
#291=EDGE_CURVE('',#381,#379,#429,.T.);
#292=EDGE_CURVE('',#379,#382,#430,.T.);
#293=EDGE_CURVE('',#381,#383,#431,.T.);
#294=EDGE_CURVE('',#383,#382,#432,.T.);
#295=EDGE_CURVE('',#384,#385,#433,.T.);
#296=EDGE_CURVE('',#385,#382,#434,.T.);
#297=EDGE_CURVE('',#384,#383,#435,.T.);
#298=EDGE_CURVE('',#376,#386,#436,.T.);
#299=EDGE_CURVE('',#387,#386,#437,.T.);
#300=EDGE_CURVE('',#377,#387,#438,.T.);
#301=EDGE_CURVE('',#385,#386,#46,.T.);
#302=EDGE_CURVE('',#384,#387,#47,.T.);
#303=EDGE_CURVE('',#354,#378,#48,.T.);
#304=EDGE_CURVE('',#353,#380,#49,.T.);
#305=EDGE_CURVE('',#388,#389,#439,.T.);
#306=EDGE_CURVE('',#389,#373,#440,.T.);
#307=EDGE_CURVE('',#372,#388,#441,.F.);
#308=EDGE_CURVE('',#370,#390,#442,.F.);
#309=EDGE_CURVE('',#390,#391,#443,.T.);
#310=EDGE_CURVE('',#391,#371,#444,.T.);
#311=EDGE_CURVE('',#392,#393,#445,.T.);
#312=EDGE_CURVE('',#392,#375,#446,.T.);
#313=EDGE_CURVE('',#374,#393,#447,.F.);
#314=EDGE_CURVE('',#390,#364,#50,.T.);
#315=EDGE_CURVE('',#365,#392,#51,.T.);
#316=EDGE_CURVE('',#393,#389,#52,.T.);
#317=EDGE_CURVE('',#388,#391,#53,.T.);
#318=EDGE_CURVE('',#394,#394,#54,.T.);
#319=EDGE_CURVE('',#395,#395,#55,.T.);
#320=EDGE_CURVE('',#350,#396,#448,.T.);
#321=EDGE_CURVE('',#396,#397,#449,.T.);
#322=EDGE_CURVE('',#355,#397,#450,.T.);
#323=EDGE_CURVE('',#344,#398,#451,.T.);
#324=EDGE_CURVE('',#398,#399,#56,.F.);
#325=EDGE_CURVE('',#346,#399,#452,.T.);
#326=EDGE_CURVE('',#399,#400,#453,.F.);
#327=EDGE_CURVE('',#347,#400,#454,.T.);
#328=EDGE_CURVE('',#400,#401,#57,.F.);
#329=EDGE_CURVE('',#348,#401,#455,.T.);
#330=EDGE_CURVE('',#401,#402,#456,.T.);
#331=EDGE_CURVE('',#349,#402,#457,.T.);
#332=EDGE_CURVE('',#402,#396,#58,.F.);
#333=EDGE_CURVE('',#345,#403,#458,.T.);
#334=EDGE_CURVE('',#403,#398,#459,.F.);
#335=EDGE_CURVE('',#397,#403,#59,.F.);
#336=EDGE_CURVE('',#362,#397,#60,.T.);
#337=EDGE_CURVE('',#403,#361,#61,.T.);
#338=EDGE_CURVE('',#398,#360,#62,.T.);
#339=EDGE_CURVE('',#363,#396,#63,.T.);
#340=EDGE_CURVE('',#399,#359,#64,.T.);
#341=EDGE_CURVE('',#356,#402,#65,.T.);
#342=EDGE_CURVE('',#400,#358,#66,.T.);
#343=EDGE_CURVE('',#357,#401,#67,.T.);
#344=VERTEX_POINT('',#946);
#345=VERTEX_POINT('',#947);
#346=VERTEX_POINT('',#949);
#347=VERTEX_POINT('',#951);
#348=VERTEX_POINT('',#953);
#349=VERTEX_POINT('',#955);
#350=VERTEX_POINT('',#957);
#351=VERTEX_POINT('',#959);
#352=VERTEX_POINT('',#961);
#353=VERTEX_POINT('',#963);
#354=VERTEX_POINT('',#965);
#355=VERTEX_POINT('',#967);
#356=VERTEX_POINT('',#971);
#357=VERTEX_POINT('',#972);
#358=VERTEX_POINT('',#974);
#359=VERTEX_POINT('',#976);
#360=VERTEX_POINT('',#978);
#361=VERTEX_POINT('',#980);
#362=VERTEX_POINT('',#982);
#363=VERTEX_POINT('',#984);
#364=VERTEX_POINT('',#987);
#365=VERTEX_POINT('',#988);
#366=VERTEX_POINT('',#990);
#367=VERTEX_POINT('',#992);
#368=VERTEX_POINT('',#996);
#369=VERTEX_POINT('',#998);
#370=VERTEX_POINT('',#1000);
#371=VERTEX_POINT('',#1002);
#372=VERTEX_POINT('',#1004);
#373=VERTEX_POINT('',#1006);
#374=VERTEX_POINT('',#1008);
#375=VERTEX_POINT('',#1010);
#376=VERTEX_POINT('',#1014);
#377=VERTEX_POINT('',#1016);
#378=VERTEX_POINT('',#1020);
#379=VERTEX_POINT('',#1021);
#380=VERTEX_POINT('',#1023);
#381=VERTEX_POINT('',#1025);
#382=VERTEX_POINT('',#1029);
#383=VERTEX_POINT('',#1031);
#384=VERTEX_POINT('',#1035);
#385=VERTEX_POINT('',#1036);
#386=VERTEX_POINT('',#1041);
#387=VERTEX_POINT('',#1043);
#388=VERTEX_POINT('',#1053);
#389=VERTEX_POINT('',#1054);
#390=VERTEX_POINT('',#1059);
#391=VERTEX_POINT('',#1061);
#392=VERTEX_POINT('',#1065);
#393=VERTEX_POINT('',#1066);
#394=VERTEX_POINT('',#1076);
#395=VERTEX_POINT('',#1078);
#396=VERTEX_POINT('',#1080);
#397=VERTEX_POINT('',#1082);
#398=VERTEX_POINT('',#1086);
#399=VERTEX_POINT('',#1088);
#400=VERTEX_POINT('',#1092);
#401=VERTEX_POINT('',#1096);
#402=VERTEX_POINT('',#1100);
#403=VERTEX_POINT('',#1106);
#404=LINE('',#945,#460);
#405=LINE('',#950,#461);
#406=LINE('',#954,#462);
#407=LINE('',#958,#463);
#408=LINE('',#960,#464);
#409=LINE('',#962,#465);
#410=LINE('',#964,#466);
#411=LINE('',#966,#467);
#412=LINE('',#970,#468);
#413=LINE('',#975,#469);
#414=LINE('',#979,#470);
#415=LINE('',#983,#471);
#416=LINE('',#986,#472);
#417=LINE('',#989,#473);
#418=LINE('',#991,#474);
#419=LINE('',#993,#475);
#420=LINE('',#1001,#476);
#421=LINE('',#1005,#477);
#422=LINE('',#1009,#478);
#423=LINE('',#1013,#479);
#424=LINE('',#1015,#480);
#425=LINE('',#1017,#481);
#426=LINE('',#1019,#482);
#427=LINE('',#1022,#483);
#428=LINE('',#1024,#484);
#429=LINE('',#1026,#485);
#430=LINE('',#1028,#486);
#431=LINE('',#1030,#487);
#432=LINE('',#1032,#488);
#433=LINE('',#1034,#489);
#434=LINE('',#1037,#490);
#435=LINE('',#1038,#491);
#436=LINE('',#1040,#492);
#437=LINE('',#1042,#493);
#438=LINE('',#1044,#494);
#439=LINE('',#1052,#495);
#440=LINE('',#1055,#496);
#441=LINE('',#1056,#497);
#442=LINE('',#1058,#498);
#443=LINE('',#1060,#499);
#444=LINE('',#1062,#500);
#445=LINE('',#1064,#501);
#446=LINE('',#1067,#502);
#447=LINE('',#1068,#503);
#448=LINE('',#1079,#504);
#449=LINE('',#1081,#505);
#450=LINE('',#1083,#506);
#451=LINE('',#1085,#507);
#452=LINE('',#1089,#508);
#453=LINE('',#1091,#509);
#454=LINE('',#1093,#510);
#455=LINE('',#1097,#511);
#456=LINE('',#1099,#512);
#457=LINE('',#1101,#513);
#458=LINE('',#1105,#514);
#459=LINE('',#1107,#515);
#460=VECTOR('',#745,1.);
#461=VECTOR('',#748,1.);
#462=VECTOR('',#751,1.);
#463=VECTOR('',#754,1.);
#464=VECTOR('',#755,1.);
#465=VECTOR('',#756,1.);
#466=VECTOR('',#757,1.);
#467=VECTOR('',#758,1.);
#468=VECTOR('',#763,1.);
#469=VECTOR('',#766,1.);
#470=VECTOR('',#769,1.);
#471=VECTOR('',#772,1.);
#472=VECTOR('',#775,1.);
#473=VECTOR('',#776,1.);
#474=VECTOR('',#777,1.);
#475=VECTOR('',#778,1.);
#476=VECTOR('',#787,1.);
#477=VECTOR('',#790,1.);
#478=VECTOR('',#793,1.);
#479=VECTOR('',#798,1.);
#480=VECTOR('',#799,1.);
#481=VECTOR('',#800,1.);
#482=VECTOR('',#803,1.);
#483=VECTOR('',#804,1.);
#484=VECTOR('',#805,1.);
#485=VECTOR('',#806,1.);
#486=VECTOR('',#809,1.);
#487=VECTOR('',#810,1.);
#488=VECTOR('',#811,1.);
#489=VECTOR('',#814,1.);
#490=VECTOR('',#815,1.);
#491=VECTOR('',#816,1.);
#492=VECTOR('',#819,1.);
#493=VECTOR('',#820,1.);
#494=VECTOR('',#821,1.);
#495=VECTOR('',#836,1.);
#496=VECTOR('',#837,1.);
#497=VECTOR('',#838,1.);
#498=VECTOR('',#841,1.);
#499=VECTOR('',#842,1.);
#500=VECTOR('',#843,1.);
#501=VECTOR('',#846,1.);
#502=VECTOR('',#847,1.);
#503=VECTOR('',#848,1.);
#504=VECTOR('',#865,1.);
#505=VECTOR('',#866,1.);
#506=VECTOR('',#867,1.);
#507=VECTOR('',#870,1.);
#508=VECTOR('',#873,1.);
#509=VECTOR('',#876,1.);
#510=VECTOR('',#877,1.);
#511=VECTOR('',#882,1.);
#512=VECTOR('',#885,1.);
#513=VECTOR('',#886,1.);
#514=VECTOR('',#893,1.);
#515=VECTOR('',#894,1.);
#516=EDGE_LOOP('',(#68,#69,#70,#71,#72,#73,#74,#75,#76,#77,#78,#79));
#517=EDGE_LOOP('',(#80,#81,#82,#83,#84,#85,#86,#87));
#518=EDGE_LOOP('',(#88,#89,#90,#91));
#519=EDGE_LOOP('',(#92));
#520=EDGE_LOOP('',(#93));
#521=EDGE_LOOP('',(#94,#95,#96,#97,#98,#99,#100,#101));
#522=EDGE_LOOP('',(#102,#103,#104,#105));
#523=EDGE_LOOP('',(#106,#107,#108,#109));
#524=EDGE_LOOP('',(#110,#111,#112,#113));
#525=EDGE_LOOP('',(#114,#115,#116,#117));
#526=EDGE_LOOP('',(#118,#119,#120,#121));
#527=EDGE_LOOP('',(#122,#123,#124,#125));
#528=EDGE_LOOP('',(#126,#127,#128,#129));
#529=EDGE_LOOP('',(#130,#131,#132,#133));
#530=EDGE_LOOP('',(#134,#135,#136,#137));
#531=EDGE_LOOP('',(#138,#139,#140,#141));
#532=EDGE_LOOP('',(#142,#143,#144,#145,#146,#147,#148,#149));
#533=EDGE_LOOP('',(#150,#151,#152,#153,#154,#155,#156,#157));
#534=EDGE_LOOP('',(#158));
#535=EDGE_LOOP('',(#159));
#536=EDGE_LOOP('',(#160,#161,#162,#163,#164,#165,#166,#167,#168,#169,#170,
#171));
#537=EDGE_LOOP('',(#172,#173,#174,#175));
#538=EDGE_LOOP('',(#176,#177,#178,#179));
#539=EDGE_LOOP('',(#180,#181,#182,#183));
#540=EDGE_LOOP('',(#184,#185,#186,#187));
#541=EDGE_LOOP('',(#188,#189,#190,#191));
#542=EDGE_LOOP('',(#192,#193,#194,#195));
#543=EDGE_LOOP('',(#196,#197,#198,#199));
#544=EDGE_LOOP('',(#200,#201,#202,#203));
#545=EDGE_LOOP('',(#204,#205,#206,#207));
#546=EDGE_LOOP('',(#208,#209,#210,#211));
#547=EDGE_LOOP('',(#212,#213,#214,#215));
#548=EDGE_LOOP('',(#216));
#549=EDGE_LOOP('',(#217));
#550=EDGE_LOOP('',(#218));
#551=EDGE_LOOP('',(#219));
#552=EDGE_LOOP('',(#220,#221,#222,#223));
#553=EDGE_LOOP('',(#224,#225,#226,#227));
#554=EDGE_LOOP('',(#228,#229,#230,#231));
#555=EDGE_LOOP('',(#232,#233,#234,#235));
#556=EDGE_LOOP('',(#236,#237,#238,#239));
#557=EDGE_LOOP('',(#240,#241,#242,#243));
#558=EDGE_LOOP('',(#244,#245,#246,#247));
#559=EDGE_LOOP('',(#248,#249,#250,#251));
#560=FACE_BOUND('',#516,.T.);
#561=FACE_BOUND('',#517,.T.);
#562=FACE_BOUND('',#518,.T.);
#563=FACE_BOUND('',#519,.T.);
#564=FACE_BOUND('',#520,.T.);
#565=FACE_BOUND('',#521,.T.);
#566=FACE_BOUND('',#522,.T.);
#567=FACE_BOUND('',#523,.T.);
#568=FACE_BOUND('',#524,.T.);
#569=FACE_BOUND('',#525,.T.);
#570=FACE_BOUND('',#526,.T.);
#571=FACE_BOUND('',#527,.T.);
#572=FACE_BOUND('',#528,.T.);
#573=FACE_BOUND('',#529,.T.);
#574=FACE_BOUND('',#530,.T.);
#575=FACE_BOUND('',#531,.T.);
#576=FACE_BOUND('',#532,.T.);
#577=FACE_BOUND('',#533,.T.);
#578=FACE_BOUND('',#534,.T.);
#579=FACE_BOUND('',#535,.T.);
#580=FACE_BOUND('',#536,.T.);
#581=FACE_BOUND('',#537,.T.);
#582=FACE_BOUND('',#538,.T.);
#583=FACE_BOUND('',#539,.T.);
#584=FACE_BOUND('',#540,.T.);
#585=FACE_BOUND('',#541,.T.);
#586=FACE_BOUND('',#542,.T.);
#587=FACE_BOUND('',#543,.T.);
#588=FACE_BOUND('',#544,.T.);
#589=FACE_BOUND('',#545,.T.);
#590=FACE_BOUND('',#546,.T.);
#591=FACE_BOUND('',#547,.T.);
#592=FACE_BOUND('',#548,.T.);
#593=FACE_BOUND('',#549,.T.);
#594=FACE_BOUND('',#550,.T.);
#595=FACE_BOUND('',#551,.T.);
#596=FACE_BOUND('',#552,.T.);
#597=FACE_BOUND('',#553,.T.);
#598=FACE_BOUND('',#554,.T.);
#599=FACE_BOUND('',#555,.T.);
#600=FACE_BOUND('',#556,.T.);
#601=FACE_BOUND('',#557,.T.);
#602=FACE_BOUND('',#558,.T.);
#603=FACE_BOUND('',#559,.T.);
#604=PLANE('',#669);
#605=PLANE('',#674);
#606=PLANE('',#679);
#607=PLANE('',#686);
#608=PLANE('',#687);
#609=PLANE('',#688);
#610=PLANE('',#689);
#611=PLANE('',#690);
#612=PLANE('',#697);
#613=PLANE('',#698);
#614=PLANE('',#699);
#615=PLANE('',#700);
#616=PLANE('',#705);
#617=PLANE('',#710);
#618=PLANE('',#713);
#619=PLANE('',#716);
#620=ADVANCED_FACE('',(#560),#604,.T.);
#621=ADVANCED_FACE('',(#561,#562),#605,.F.);
#622=ADVANCED_FACE('',(#563,#564,#565),#606,.F.);
#623=ADVANCED_FACE('',(#566),#607,.F.);
#624=ADVANCED_FACE('',(#567),#608,.T.);
#625=ADVANCED_FACE('',(#568),#609,.T.);
#626=ADVANCED_FACE('',(#569),#610,.F.);
#627=ADVANCED_FACE('',(#570),#611,.F.);
#628=ADVANCED_FACE('',(#571),#16,.F.);
#629=ADVANCED_FACE('',(#572),#17,.F.);
#630=ADVANCED_FACE('',(#573),#612,.T.);
#631=ADVANCED_FACE('',(#574),#613,.T.);
#632=ADVANCED_FACE('',(#575),#614,.F.);
#633=ADVANCED_FACE('',(#576,#577),#615,.T.);
#634=ADVANCED_FACE('',(#578,#579,#580),#616,.T.);
#635=ADVANCED_FACE('',(#581),#18,.F.);
#636=ADVANCED_FACE('',(#582),#617,.T.);
#637=ADVANCED_FACE('',(#583),#19,.F.);
#638=ADVANCED_FACE('',(#584),#618,.F.);
#639=ADVANCED_FACE('',(#585),#20,.F.);
#640=ADVANCED_FACE('',(#586),#619,.T.);
#641=ADVANCED_FACE('',(#587),#21,.F.);
#642=ADVANCED_FACE('',(#588),#22,.T.);
#643=ADVANCED_FACE('',(#589),#23,.T.);
#644=ADVANCED_FACE('',(#590),#24,.T.);
#645=ADVANCED_FACE('',(#591),#25,.T.);
#646=ADVANCED_FACE('',(#592,#593),#26,.F.);
#647=ADVANCED_FACE('',(#594,#595),#27,.F.);
#648=ADVANCED_FACE('',(#596),#12,.T.);
#649=ADVANCED_FACE('',(#597),#28,.T.);
#650=ADVANCED_FACE('',(#598),#29,.T.);
#651=ADVANCED_FACE('',(#599),#13,.T.);
#652=ADVANCED_FACE('',(#600),#14,.T.);
#653=ADVANCED_FACE('',(#601),#30,.T.);
#654=ADVANCED_FACE('',(#602),#31,.T.);
#655=ADVANCED_FACE('',(#603),#15,.T.);
#656=CLOSED_SHELL('',(#620,#621,#622,#623,#624,#625,#626,#627,#628,#629,
#630,#631,#632,#633,#634,#635,#636,#637,#638,#639,#640,#641,#642,#643,#644,
#645,#646,#647,#648,#649,#650,#651,#652,#653,#654,#655));
#657=STYLED_ITEM('',(#658),#665);
#658=PRESENTATION_STYLE_ASSIGNMENT((#659));
#659=SURFACE_STYLE_USAGE(.BOTH.,#660);
#660=SURFACE_SIDE_STYLE('',(#661));
#661=SURFACE_STYLE_FILL_AREA(#662);
#662=FILL_AREA_STYLE('',(#663));
#663=FILL_AREA_STYLE_COLOUR('',#664);
#664=COLOUR_RGB('',0.917647058823529,0.917647058823529,0.917647058823529);
#665=MANIFOLD_SOLID_BREP('Part 1',#656);
#666=SHAPE_DEFINITION_REPRESENTATION(#1138,#667);
#667=SHAPE_REPRESENTATION('Part 1',(#668),#1133);
#668=AXIS2_PLACEMENT_3D('',#943,#741,#742);
#669=AXIS2_PLACEMENT_3D('',#944,#743,#744);
#670=AXIS2_PLACEMENT_3D('',#948,#746,#747);
#671=AXIS2_PLACEMENT_3D('',#952,#749,#750);
#672=AXIS2_PLACEMENT_3D('',#956,#752,#753);
#673=AXIS2_PLACEMENT_3D('',#968,#759,#760);
#674=AXIS2_PLACEMENT_3D('',#969,#761,#762);
#675=AXIS2_PLACEMENT_3D('',#973,#764,#765);
#676=AXIS2_PLACEMENT_3D('',#977,#767,#768);
#677=AXIS2_PLACEMENT_3D('',#981,#770,#771);
#678=AXIS2_PLACEMENT_3D('',#985,#773,#774);
#679=AXIS2_PLACEMENT_3D('',#994,#779,#780);
#680=AXIS2_PLACEMENT_3D('',#995,#781,#782);
#681=AXIS2_PLACEMENT_3D('',#997,#783,#784);
#682=AXIS2_PLACEMENT_3D('',#999,#785,#786);
#683=AXIS2_PLACEMENT_3D('',#1003,#788,#789);
#684=AXIS2_PLACEMENT_3D('',#1007,#791,#792);
#685=AXIS2_PLACEMENT_3D('',#1011,#794,#795);
#686=AXIS2_PLACEMENT_3D('',#1012,#796,#797);
#687=AXIS2_PLACEMENT_3D('',#1018,#801,#802);
#688=AXIS2_PLACEMENT_3D('',#1027,#807,#808);
#689=AXIS2_PLACEMENT_3D('',#1033,#812,#813);
#690=AXIS2_PLACEMENT_3D('',#1039,#817,#818);
#691=AXIS2_PLACEMENT_3D('',#1045,#822,#823);
#692=AXIS2_PLACEMENT_3D('',#1046,#824,#825);
#693=AXIS2_PLACEMENT_3D('',#1047,#826,#827);
#694=AXIS2_PLACEMENT_3D('',#1048,#828,#829);
#695=AXIS2_PLACEMENT_3D('',#1049,#830,#831);
#696=AXIS2_PLACEMENT_3D('',#1050,#832,#833);
#697=AXIS2_PLACEMENT_3D('',#1051,#834,#835);
#698=AXIS2_PLACEMENT_3D('',#1057,#839,#840);
#699=AXIS2_PLACEMENT_3D('',#1063,#844,#845);
#700=AXIS2_PLACEMENT_3D('',#1069,#849,#850);
#701=AXIS2_PLACEMENT_3D('',#1070,#851,#852);
#702=AXIS2_PLACEMENT_3D('',#1071,#853,#854);
#703=AXIS2_PLACEMENT_3D('',#1072,#855,#856);
#704=AXIS2_PLACEMENT_3D('',#1073,#857,#858);
#705=AXIS2_PLACEMENT_3D('',#1074,#859,#860);
#706=AXIS2_PLACEMENT_3D('',#1075,#861,#862);
#707=AXIS2_PLACEMENT_3D('',#1077,#863,#864);
#708=AXIS2_PLACEMENT_3D('',#1084,#868,#869);
#709=AXIS2_PLACEMENT_3D('',#1087,#871,#872);
#710=AXIS2_PLACEMENT_3D('',#1090,#874,#875);
#711=AXIS2_PLACEMENT_3D('',#1094,#878,#879);
#712=AXIS2_PLACEMENT_3D('',#1095,#880,#881);
#713=AXIS2_PLACEMENT_3D('',#1098,#883,#884);
#714=AXIS2_PLACEMENT_3D('',#1102,#887,#888);
#715=AXIS2_PLACEMENT_3D('',#1103,#889,#890);
#716=AXIS2_PLACEMENT_3D('',#1104,#891,#892);
#717=AXIS2_PLACEMENT_3D('',#1108,#895,#896);
#718=AXIS2_PLACEMENT_3D('',#1109,#897,#898);
#719=AXIS2_PLACEMENT_3D('',#1110,#899,#900);
#720=AXIS2_PLACEMENT_3D('',#1111,#901,#902);
#721=AXIS2_PLACEMENT_3D('',#1112,#903,#904);
#722=AXIS2_PLACEMENT_3D('',#1113,#905,#906);
#723=AXIS2_PLACEMENT_3D('',#1114,#907,#908);
#724=AXIS2_PLACEMENT_3D('',#1115,#909,#910);
#725=AXIS2_PLACEMENT_3D('',#1116,#911,#912);
#726=AXIS2_PLACEMENT_3D('',#1117,#913,#914);
#727=AXIS2_PLACEMENT_3D('',#1118,#915,#916);
#728=AXIS2_PLACEMENT_3D('',#1119,#917,#918);
#729=AXIS2_PLACEMENT_3D('',#1120,#919,#920);
#730=AXIS2_PLACEMENT_3D('',#1121,#921,#922);
#731=AXIS2_PLACEMENT_3D('',#1122,#923,#924);
#732=AXIS2_PLACEMENT_3D('',#1123,#925,#926);
#733=AXIS2_PLACEMENT_3D('',#1124,#927,#928);
#734=AXIS2_PLACEMENT_3D('',#1125,#929,#930);
#735=AXIS2_PLACEMENT_3D('',#1126,#931,#932);
#736=AXIS2_PLACEMENT_3D('',#1127,#933,#934);
#737=AXIS2_PLACEMENT_3D('',#1128,#935,#936);
#738=AXIS2_PLACEMENT_3D('',#1129,#937,#938);
#739=AXIS2_PLACEMENT_3D('',#1130,#939,#940);
#740=AXIS2_PLACEMENT_3D('',#1131,#941,#942);
#741=DIRECTION('',(0.,0.,1.));
#742=DIRECTION('',(1.,0.,0.));
#743=DIRECTION('',(0.,-1.,0.));
#744=DIRECTION('',(0.,0.,-1.));
#745=DIRECTION('',(0.,0.,-1.));
#746=DIRECTION('',(0.,-1.,0.));
#747=DIRECTION('',(0.,0.,-1.));
#748=DIRECTION('',(-1.,0.,2.51774089401569E-16));
#749=DIRECTION('',(0.,-1.,0.));
#750=DIRECTION('',(0.,0.,-1.));
#751=DIRECTION('',(0.,0.,-1.));
#752=DIRECTION('',(0.,-1.,0.));
#753=DIRECTION('',(0.,0.,-1.));
#754=DIRECTION('',(-1.,0.,0.));
#755=DIRECTION('',(0.,0.,-1.));
#756=DIRECTION('',(-1.,0.,0.));
#757=DIRECTION('',(0.,0.,-1.));
#758=DIRECTION('',(-1.,0.,0.));
#759=DIRECTION('',(0.,-1.,0.));
#760=DIRECTION('',(0.,0.,-1.));
#761=DIRECTION('',(0.,-1.,0.));
#762=DIRECTION('',(0.,0.,-1.));
#763=DIRECTION('',(0.,0.,-1.));
#764=DIRECTION('',(0.,-1.,0.));
#765=DIRECTION('',(0.,0.,-1.));
#766=DIRECTION('',(-1.,0.,2.51774089401569E-16));
#767=DIRECTION('',(0.,-1.,0.));
#768=DIRECTION('',(0.,0.,-1.));
#769=DIRECTION('',(0.,0.,-1.));
#770=DIRECTION('',(0.,-1.,0.));
#771=DIRECTION('',(0.,0.,-1.));
#772=DIRECTION('',(-1.,0.,0.));
#773=DIRECTION('',(0.,-1.,0.));
#774=DIRECTION('',(0.,0.,-1.));
#775=DIRECTION('',(-1.,0.,0.));
#776=DIRECTION('',(0.,0.,-1.));
#777=DIRECTION('',(-1.,0.,0.));
#778=DIRECTION('',(0.,0.,-1.));
#779=DIRECTION('',(0.,0.,1.));
#780=DIRECTION('',(1.,0.,0.));
#781=DIRECTION('',(0.,0.,1.));
#782=DIRECTION('',(1.,0.,0.));
#783=DIRECTION('',(0.,0.,1.));
#784=DIRECTION('',(1.,0.,0.));
#785=DIRECTION('',(0.,0.,1.));
#786=DIRECTION('',(1.,0.,0.));
#787=DIRECTION('',(1.86379100292968E-16,-1.,0.));
#788=DIRECTION('',(0.,0.,1.));
#789=DIRECTION('',(1.,0.,0.));
#790=DIRECTION('',(-1.,0.,0.));
#791=DIRECTION('',(0.,0.,1.));
#792=DIRECTION('',(1.,0.,0.));
#793=DIRECTION('',(1.86379100292968E-16,-1.,0.));
#794=DIRECTION('',(0.,0.,1.));
#795=DIRECTION('',(1.,0.,0.));
#796=DIRECTION('',(1.,2.22186804479898E-16,0.));
#797=DIRECTION('',(-2.22186804479898E-16,1.,0.));
#798=DIRECTION('',(2.22186804479898E-16,-1.,0.));
#799=DIRECTION('',(0.,0.,-1.));
#800=DIRECTION('',(2.22186804479898E-16,-1.,0.));
#801=DIRECTION('',(0.,-1.,0.));
#802=DIRECTION('',(0.,0.,-1.));
#803=DIRECTION('',(-1.,0.,0.));
#804=DIRECTION('',(0.,0.,-1.));
#805=DIRECTION('',(-1.,0.,0.));
#806=DIRECTION('',(0.,0.,-1.));
#807=DIRECTION('',(1.,2.22186804479898E-16,0.));
#808=DIRECTION('',(-2.22186804479898E-16,1.,0.));
#809=DIRECTION('',(2.22186804479898E-16,-1.,0.));
#810=DIRECTION('',(2.22186804479898E-16,-1.,0.));
#811=DIRECTION('',(0.,0.,-1.));
#812=DIRECTION('',(0.,-1.,0.));
#813=DIRECTION('',(0.,0.,-1.));
#814=DIRECTION('',(0.,0.,-1.));
#815=DIRECTION('',(-1.,0.,0.));
#816=DIRECTION('',(-1.,0.,0.));
#817=DIRECTION('',(0.,-1.,0.));
#818=DIRECTION('',(0.,0.,-1.));
#819=DIRECTION('',(-1.,0.,0.));
#820=DIRECTION('',(0.,0.,-1.));
#821=DIRECTION('',(-1.,0.,0.));
#822=DIRECTION('',(0.,0.,-1.));
#823=DIRECTION('',(-1.,0.,0.));
#824=DIRECTION('',(0.,0.,1.));
#825=DIRECTION('',(1.,0.,0.));
#826=DIRECTION('',(0.,0.,1.));
#827=DIRECTION('',(1.,0.,0.));
#828=DIRECTION('',(0.,0.,-1.));
#829=DIRECTION('',(-1.,0.,0.));
#830=DIRECTION('',(0.,0.,1.));
#831=DIRECTION('',(1.,0.,0.));
#832=DIRECTION('',(0.,0.,1.));
#833=DIRECTION('',(1.,0.,0.));
#834=DIRECTION('',(0.,-1.,0.));
#835=DIRECTION('',(0.,0.,-1.));
#836=DIRECTION('',(-1.,0.,0.));
#837=DIRECTION('',(0.,0.,-1.));
#838=DIRECTION('',(0.,0.,-1.));
#839=DIRECTION('',(1.,1.86379100292968E-16,0.));
#840=DIRECTION('',(-1.86379100292968E-16,1.,0.));
#841=DIRECTION('',(0.,0.,-1.));
#842=DIRECTION('',(1.86379100292968E-16,-1.,0.));
#843=DIRECTION('',(0.,0.,-1.));
#844=DIRECTION('',(1.,1.86379100292968E-16,0.));
#845=DIRECTION('',(-1.86379100292968E-16,1.,0.));
#846=DIRECTION('',(1.86379100292968E-16,-1.,0.));
#847=DIRECTION('',(0.,0.,-1.));
#848=DIRECTION('',(0.,0.,-1.));
#849=DIRECTION('',(0.,0.,1.));
#850=DIRECTION('',(1.,0.,0.));
#851=DIRECTION('',(0.,0.,1.));
#852=DIRECTION('',(1.,0.,0.));
#853=DIRECTION('',(0.,0.,1.));
#854=DIRECTION('',(1.,0.,0.));
#855=DIRECTION('',(0.,0.,1.));
#856=DIRECTION('',(1.,0.,0.));
#857=DIRECTION('',(0.,0.,1.));
#858=DIRECTION('',(1.,0.,0.));
#859=DIRECTION('',(0.,0.,1.));
#860=DIRECTION('',(1.,0.,0.));
#861=DIRECTION('',(0.,0.,1.));
#862=DIRECTION('',(1.,0.,0.));
#863=DIRECTION('',(0.,0.,1.));
#864=DIRECTION('',(1.,0.,0.));
#865=DIRECTION('',(0.,1.,0.));
#866=DIRECTION('',(-1.,0.,0.));
#867=DIRECTION('',(0.,1.,0.));
#868=DIRECTION('',(0.,1.,0.));
#869=DIRECTION('',(0.,0.,1.));
#870=DIRECTION('',(0.,1.,0.));
#871=DIRECTION('',(0.,-1.,0.));
#872=DIRECTION('',(0.,0.,-1.));
#873=DIRECTION('',(0.,1.,0.));
#874=DIRECTION('',(-2.51774089401569E-16,0.,-1.));
#875=DIRECTION('',(-1.,0.,2.51774089401569E-16));
#876=DIRECTION('',(-1.,0.,2.51774089401569E-16));
#877=DIRECTION('',(0.,1.,0.));
#878=DIRECTION('',(0.,1.,0.));
#879=DIRECTION('',(0.,0.,1.));
#880=DIRECTION('',(0.,-1.,0.));
#881=DIRECTION('',(0.,0.,-1.));
#882=DIRECTION('',(0.,1.,0.));
#883=DIRECTION('',(1.,0.,0.));
#884=DIRECTION('',(0.,0.,-1.));
#885=DIRECTION('',(0.,0.,-1.));
#886=DIRECTION('',(0.,1.,0.));
#887=DIRECTION('',(0.,1.,0.));
#888=DIRECTION('',(0.,0.,1.));
#889=DIRECTION('',(0.,-1.,0.));
#890=DIRECTION('',(0.,0.,-1.));
#891=DIRECTION('',(1.,0.,0.));
#892=DIRECTION('',(0.,0.,-1.));
#893=DIRECTION('',(0.,1.,0.));
#894=DIRECTION('',(0.,0.,-1.));
#895=DIRECTION('',(0.,1.,0.));
#896=DIRECTION('',(0.,0.,1.));
#897=DIRECTION('',(0.,-1.,0.));
#898=DIRECTION('',(0.,0.,-1.));
#899=DIRECTION('',(0.,0.,1.));
#900=DIRECTION('',(1.,0.,0.));
#901=DIRECTION('',(0.,0.,-1.));
#902=DIRECTION('',(-1.,0.,0.));
#903=DIRECTION('',(0.,0.,1.));
#904=DIRECTION('',(1.,0.,0.));
#905=DIRECTION('',(0.,0.,-1.));
#906=DIRECTION('',(-1.,0.,0.));
#907=DIRECTION('',(0.,0.,1.));
#908=DIRECTION('',(1.,0.,0.));
#909=DIRECTION('',(0.,0.,1.));
#910=DIRECTION('',(1.,0.,0.));
#911=DIRECTION('',(0.,-1.,0.));
#912=DIRECTION('',(0.,0.,-1.));
#913=DIRECTION('',(1.,0.,0.));
#914=DIRECTION('',(0.,0.,-1.));
#915=DIRECTION('',(0.,0.,1.));
#916=DIRECTION('',(1.,0.,0.));
#917=DIRECTION('',(0.,0.,1.));
#918=DIRECTION('',(1.,0.,0.));
#919=DIRECTION('',(0.,-1.15648231731787E-15,1.));
#920=DIRECTION('',(0.,-1.,-1.15648231731787E-15));
#921=DIRECTION('',(1.,0.,0.));
#922=DIRECTION('',(0.,0.,-1.));
#923=DIRECTION('',(1.,0.,0.));
#924=DIRECTION('',(0.,0.,-1.));
#925=DIRECTION('',(0.,-1.,0.));
#926=DIRECTION('',(0.,0.,-1.));
#927=DIRECTION('',(1.,-2.31296463463574E-15,2.31296463463575E-15));
#928=DIRECTION('',(2.31296463463575E-15,0.,-1.));
#929=DIRECTION('',(0.,-1.,0.));
#930=DIRECTION('',(0.,0.,-1.));
#931=DIRECTION('',(-4.04768811061256E-15,0.,1.));
#932=DIRECTION('',(1.,0.,4.04768811061256E-15));
#933=DIRECTION('',(1.,0.,-2.51774089401569E-16));
#934=DIRECTION('',(-2.51774089401569E-16,0.,-1.));
#935=DIRECTION('',(1.,0.,0.));
#936=DIRECTION('',(0.,0.,-1.));
#937=DIRECTION('',(0.,0.,-1.));
#938=DIRECTION('',(-1.,0.,0.));
#939=DIRECTION('',(-3.46944695195361E-15,0.,1.));
#940=DIRECTION('',(1.,0.,3.46944695195361E-15));
#941=DIRECTION('',(0.,-1.,0.));
#942=DIRECTION('',(0.,0.,-1.));
#943=CARTESIAN_POINT('',(0.,0.,0.));
#944=CARTESIAN_POINT('',(0.014345,0.03123,0.013));
#945=CARTESIAN_POINT('',(0.0074,0.03123,0.007));
#946=CARTESIAN_POINT('',(0.0074,0.03123,0.0095));
#947=CARTESIAN_POINT('',(0.0074,0.03123,0.0045));
#948=CARTESIAN_POINT('',(0.0089,0.03123,0.0095));
#949=CARTESIAN_POINT('',(0.0089,0.03123,0.011));
#950=CARTESIAN_POINT('',(0.012345,0.03123,0.011));
#951=CARTESIAN_POINT('',(0.01579,0.03123,0.011));
#952=CARTESIAN_POINT('',(0.01579,0.03123,0.0095));
#953=CARTESIAN_POINT('',(0.01729,0.03123,0.0095));
#954=CARTESIAN_POINT('',(0.01729,0.03123,0.007));
#955=CARTESIAN_POINT('',(0.01729,0.03123,0.0045));
#956=CARTESIAN_POINT('',(0.01579,0.03123,0.0045));
#957=CARTESIAN_POINT('',(0.01579,0.03123,0.003));
#958=CARTESIAN_POINT('',(0.014345,0.03123,0.003));
#959=CARTESIAN_POINT('',(0.02449,0.03123,0.003));
#960=CARTESIAN_POINT('',(0.02449,0.03123,0.013));
#961=CARTESIAN_POINT('',(0.02449,0.03123,0.013));
#962=CARTESIAN_POINT('',(0.014345,0.03123,0.013));
#963=CARTESIAN_POINT('',(0.0042,0.03123,0.013));
#964=CARTESIAN_POINT('',(0.0042,0.03123,0.013));
#965=CARTESIAN_POINT('',(0.0042,0.03123,0.003));
#966=CARTESIAN_POINT('',(0.014345,0.03123,0.003));
#967=CARTESIAN_POINT('',(0.0089,0.03123,0.003));
#968=CARTESIAN_POINT('',(0.0089,0.03123,0.0045));
#969=CARTESIAN_POINT('',(-6.93889390390723E-18,0.03723,0.013));
#970=CARTESIAN_POINT('',(0.01879,0.03723,0.013));
#971=CARTESIAN_POINT('',(0.01879,0.03723,0.0045));
#972=CARTESIAN_POINT('',(0.01879,0.03723,0.0095));
#973=CARTESIAN_POINT('',(0.01579,0.03723,0.0095));
#974=CARTESIAN_POINT('',(0.01579,0.03723,0.0125));
#975=CARTESIAN_POINT('',(0.0089,0.03723,0.0125));
#976=CARTESIAN_POINT('',(0.0089,0.03723,0.0125));
#977=CARTESIAN_POINT('',(0.0089,0.03723,0.0095));
#978=CARTESIAN_POINT('',(0.0059,0.03723,0.0095));
#979=CARTESIAN_POINT('',(0.0059,0.03723,0.0045));
#980=CARTESIAN_POINT('',(0.0059,0.03723,0.0045));
#981=CARTESIAN_POINT('',(0.0089,0.03723,0.0045));
#982=CARTESIAN_POINT('',(0.0089,0.03723,0.0015));
#983=CARTESIAN_POINT('',(0.01579,0.03723,0.0015));
#984=CARTESIAN_POINT('',(0.01579,0.03723,0.0015));
#985=CARTESIAN_POINT('',(0.01579,0.03723,0.0045));
#986=CARTESIAN_POINT('',(-6.93889390390723E-18,0.03723,0.013));
#987=CARTESIAN_POINT('',(0.0278343650813896,0.03723,0.013));
#988=CARTESIAN_POINT('',(-0.0278343650813896,0.03723,0.013));
#989=CARTESIAN_POINT('',(0.0278343650813896,0.03723,0.));
#990=CARTESIAN_POINT('',(0.0278343650813896,0.03723,0.));
#991=CARTESIAN_POINT('',(-6.93889390390723E-18,0.03723,0.));
#992=CARTESIAN_POINT('',(-0.0278343650813896,0.03723,0.));
#993=CARTESIAN_POINT('',(-0.0278343650813896,0.03723,0.013));
#994=CARTESIAN_POINT('',(0.,-6.93889390390723E-18,0.));
#995=CARTESIAN_POINT('',(1.7347234759768E-18,0.03123,0.));
#996=CARTESIAN_POINT('',(0.00145,0.03123,0.));
#997=CARTESIAN_POINT('',(-1.7347234759768E-18,-0.03123,0.));
#998=CARTESIAN_POINT('',(0.00145,-0.03123,0.));
#999=CARTESIAN_POINT('',(0.0278343650813896,0.0345743650813896,0.));
#1000=CARTESIAN_POINT('',(0.03049,0.0345743650813896,0.));
#1001=CARTESIAN_POINT('',(0.03049,0.,0.));
#1002=CARTESIAN_POINT('',(0.03049,-0.0345743650813896,0.));
#1003=CARTESIAN_POINT('',(0.0278343650813896,-0.0345743650813896,0.));
#1004=CARTESIAN_POINT('',(0.0278343650813896,-0.03723,0.));
#1005=CARTESIAN_POINT('',(6.93889390390723E-18,-0.03723,0.));
#1006=CARTESIAN_POINT('',(-0.0278343650813896,-0.03723,0.));
#1007=CARTESIAN_POINT('',(-0.0278343650813896,-0.0345743650813896,0.));
#1008=CARTESIAN_POINT('',(-0.03049,-0.0345743650813896,0.));
#1009=CARTESIAN_POINT('',(-0.03049,-1.38777878078145E-17,0.));
#1010=CARTESIAN_POINT('',(-0.03049,0.0345743650813896,0.));
#1011=CARTESIAN_POINT('',(-0.0278343650813896,0.0345743650813896,0.));
#1012=CARTESIAN_POINT('',(0.02449,3.46944695195361E-18,0.013));
#1013=CARTESIAN_POINT('',(0.02449,3.46944695195361E-18,0.003));
#1014=CARTESIAN_POINT('',(0.02449,-0.03123,0.003));
#1015=CARTESIAN_POINT('',(0.02449,-0.03123,0.013));
#1016=CARTESIAN_POINT('',(0.02449,-0.03123,0.013));
#1017=CARTESIAN_POINT('',(0.02449,3.46944695195361E-18,0.013));
#1018=CARTESIAN_POINT('',(-0.014345,0.03123,0.013));
#1019=CARTESIAN_POINT('',(-0.014345,0.03123,0.003));
#1020=CARTESIAN_POINT('',(-0.0042,0.03123,0.003));
#1021=CARTESIAN_POINT('',(-0.02449,0.03123,0.003));
#1022=CARTESIAN_POINT('',(-0.0042,0.03123,0.013));
#1023=CARTESIAN_POINT('',(-0.0042,0.03123,0.013));
#1024=CARTESIAN_POINT('',(-0.014345,0.03123,0.013));
#1025=CARTESIAN_POINT('',(-0.02449,0.03123,0.013));
#1026=CARTESIAN_POINT('',(-0.02449,0.03123,0.013));
#1027=CARTESIAN_POINT('',(-0.02449,-6.93889390390723E-18,0.013));
#1028=CARTESIAN_POINT('',(-0.02449,-6.93889390390723E-18,0.003));
#1029=CARTESIAN_POINT('',(-0.02449,-0.03123,0.003));
#1030=CARTESIAN_POINT('',(-0.02449,-6.93889390390723E-18,0.013));
#1031=CARTESIAN_POINT('',(-0.02449,-0.03123,0.013));
#1032=CARTESIAN_POINT('',(-0.02449,-0.03123,0.013));
#1033=CARTESIAN_POINT('',(-0.014345,-0.03123,0.013));
#1034=CARTESIAN_POINT('',(-0.0042,-0.03123,0.013));
#1035=CARTESIAN_POINT('',(-0.0042,-0.03123,0.013));
#1036=CARTESIAN_POINT('',(-0.0042,-0.03123,0.003));
#1037=CARTESIAN_POINT('',(-0.014345,-0.03123,0.003));
#1038=CARTESIAN_POINT('',(-0.014345,-0.03123,0.013));
#1039=CARTESIAN_POINT('',(0.014345,-0.03123,0.013));
#1040=CARTESIAN_POINT('',(0.014345,-0.03123,0.003));
#1041=CARTESIAN_POINT('',(0.0042,-0.03123,0.003));
#1042=CARTESIAN_POINT('',(0.0042,-0.03123,0.013));
#1043=CARTESIAN_POINT('',(0.0042,-0.03123,0.013));
#1044=CARTESIAN_POINT('',(0.014345,-0.03123,0.013));
#1045=CARTESIAN_POINT('',(-1.7347234759768E-18,-0.03123,0.013));
#1046=CARTESIAN_POINT('',(-1.7347234759768E-18,-0.03123,0.003));
#1047=CARTESIAN_POINT('',(-1.7347234759768E-18,-0.03123,0.013));
#1048=CARTESIAN_POINT('',(1.7347234759768E-18,0.03123,0.013));
#1049=CARTESIAN_POINT('',(1.7347234759768E-18,0.03123,0.003));
#1050=CARTESIAN_POINT('',(1.7347234759768E-18,0.03123,0.013));
#1051=CARTESIAN_POINT('',(6.93889390390723E-18,-0.03723,0.013));
#1052=CARTESIAN_POINT('',(6.93889390390723E-18,-0.03723,0.013));
#1053=CARTESIAN_POINT('',(0.0278343650813896,-0.03723,0.013));
#1054=CARTESIAN_POINT('',(-0.0278343650813896,-0.03723,0.013));
#1055=CARTESIAN_POINT('',(-0.0278343650813896,-0.03723,0.));
#1056=CARTESIAN_POINT('',(0.0278343650813896,-0.03723,0.013));
#1057=CARTESIAN_POINT('',(0.03049,0.,0.013));
#1058=CARTESIAN_POINT('',(0.03049,0.0345743650813896,0.013));
#1059=CARTESIAN_POINT('',(0.03049,0.0345743650813896,0.013));
#1060=CARTESIAN_POINT('',(0.03049,0.,0.013));
#1061=CARTESIAN_POINT('',(0.03049,-0.0345743650813896,0.013));
#1062=CARTESIAN_POINT('',(0.03049,-0.0345743650813896,0.013));
#1063=CARTESIAN_POINT('',(-0.03049,-1.38777878078145E-17,0.013));
#1064=CARTESIAN_POINT('',(-0.03049,-1.38777878078145E-17,0.013));
#1065=CARTESIAN_POINT('',(-0.03049,0.0345743650813896,0.013));
#1066=CARTESIAN_POINT('',(-0.03049,-0.0345743650813896,0.013));
#1067=CARTESIAN_POINT('',(-0.03049,0.0345743650813896,0.013));
#1068=CARTESIAN_POINT('',(-0.03049,-0.0345743650813896,0.013));
#1069=CARTESIAN_POINT('',(0.,-6.93889390390723E-18,0.013));
#1070=CARTESIAN_POINT('',(0.0278343650813896,0.0345743650813896,0.013));
#1071=CARTESIAN_POINT('',(-0.0278343650813896,0.0345743650813896,0.013));
#1072=CARTESIAN_POINT('',(-0.0278343650813896,-0.0345743650813896,0.013));
#1073=CARTESIAN_POINT('',(0.0278343650813896,-0.0345743650813896,0.013));
#1074=CARTESIAN_POINT('',(0.,-6.93889390390723E-18,0.003));
#1075=CARTESIAN_POINT('',(1.7347234759768E-18,0.03123,0.003));
#1076=CARTESIAN_POINT('',(0.00145,0.03123,0.003));
#1077=CARTESIAN_POINT('',(-1.7347234759768E-18,-0.03123,0.003));
#1078=CARTESIAN_POINT('',(0.00145,-0.03123,0.003));
#1079=CARTESIAN_POINT('',(0.01579,0.031228,0.003));
#1080=CARTESIAN_POINT('',(0.01579,0.03573,0.003));
#1081=CARTESIAN_POINT('',(0.0089,0.03573,0.003));
#1082=CARTESIAN_POINT('',(0.0089,0.03573,0.003));
#1083=CARTESIAN_POINT('',(0.0089,0.031228,0.003));
#1084=CARTESIAN_POINT('',(0.0089,0.031228,0.0095));
#1085=CARTESIAN_POINT('',(0.0074,0.031228,0.0095));
#1086=CARTESIAN_POINT('',(0.0074,0.03573,0.0095));
#1087=CARTESIAN_POINT('',(0.0089,0.03573,0.0095));
#1088=CARTESIAN_POINT('',(0.0089,0.03573,0.011));
#1089=CARTESIAN_POINT('',(0.0089,0.031228,0.011));
#1090=CARTESIAN_POINT('',(0.012345,0.031228,0.011));
#1091=CARTESIAN_POINT('',(0.01579,0.03573,0.011));
#1092=CARTESIAN_POINT('',(0.01579,0.03573,0.011));
#1093=CARTESIAN_POINT('',(0.01579,0.031228,0.011));
#1094=CARTESIAN_POINT('',(0.01579,0.031228,0.0095));
#1095=CARTESIAN_POINT('',(0.01579,0.03573,0.0095));
#1096=CARTESIAN_POINT('',(0.01729,0.03573,0.0095));
#1097=CARTESIAN_POINT('',(0.01729,0.031228,0.0095));
#1098=CARTESIAN_POINT('',(0.01729,0.031228,0.007));
#1099=CARTESIAN_POINT('',(0.01729,0.03573,0.007));
#1100=CARTESIAN_POINT('',(0.01729,0.03573,0.0045));
#1101=CARTESIAN_POINT('',(0.01729,0.031228,0.0045));
#1102=CARTESIAN_POINT('',(0.01579,0.031228,0.0045));
#1103=CARTESIAN_POINT('',(0.01579,0.03573,0.0045));
#1104=CARTESIAN_POINT('',(0.0074,0.031228,0.007));
#1105=CARTESIAN_POINT('',(0.0074,0.031228,0.0045));
#1106=CARTESIAN_POINT('',(0.0074,0.03573,0.0045));
#1107=CARTESIAN_POINT('',(0.0074,0.03573,0.0095));
#1108=CARTESIAN_POINT('',(0.0089,0.031228,0.0045));
#1109=CARTESIAN_POINT('',(0.0089,0.03573,0.0045));
#1110=CARTESIAN_POINT('',(0.0278343650813896,0.0345743650813896,0.013));
#1111=CARTESIAN_POINT('',(-0.0278343650813896,0.0345743650813896,0.013));
#1112=CARTESIAN_POINT('',(-0.0278343650813896,-0.0345743650813896,0.013));
#1113=CARTESIAN_POINT('',(0.0278343650813896,-0.0345743650813896,0.013));
#1114=CARTESIAN_POINT('',(-1.7347234759768E-18,-0.03123,-0.022));
#1115=CARTESIAN_POINT('',(1.7347234759768E-18,0.03123,-0.022));
#1116=CARTESIAN_POINT('',(0.0089,0.03573,0.0045));
#1117=CARTESIAN_POINT('',(0.0089,0.03573,0.0015));
#1118=CARTESIAN_POINT('',(0.0059,0.03573,0.0045));
#1119=CARTESIAN_POINT('',(0.0059,0.03573,0.013));
#1120=CARTESIAN_POINT('',(0.0059,0.03573,0.0095));
#1121=CARTESIAN_POINT('',(0.,0.03573,0.0015));
#1122=CARTESIAN_POINT('',(0.01579,0.03573,0.0015));
#1123=CARTESIAN_POINT('',(0.0089,0.03573,0.0095));
#1124=CARTESIAN_POINT('',(0.0089,0.03573,0.0125));
#1125=CARTESIAN_POINT('',(0.01579,0.03573,0.0045));
#1126=CARTESIAN_POINT('',(0.01879,0.03573,0.0045));
#1127=CARTESIAN_POINT('',(-7.06478094860801E-18,0.03573,0.0125));
#1128=CARTESIAN_POINT('',(0.01579,0.03573,0.0125));
#1129=CARTESIAN_POINT('',(0.01879,0.03573,0.007));
#1130=CARTESIAN_POINT('',(0.01879,0.03573,0.0095));
#1131=CARTESIAN_POINT('',(0.01579,0.03573,0.0095));
#1132=MECHANICAL_DESIGN_GEOMETRIC_PRESENTATION_REPRESENTATION('',(#657),
#1133);
#1133=(
GEOMETRIC_REPRESENTATION_CONTEXT(3)
GLOBAL_UNCERTAINTY_ASSIGNED_CONTEXT((#1134))
GLOBAL_UNIT_ASSIGNED_CONTEXT((#1137,#1136,#1135))
REPRESENTATION_CONTEXT('Part 1','TOP_LEVEL_ASSEMBLY_PART')
);
#1134=UNCERTAINTY_MEASURE_WITH_UNIT(LENGTH_MEASURE(1.E-8),#1137,
'DISTANCE_ACCURACY_VALUE','Maximum Tolerance applied to model');
#1135=(
NAMED_UNIT(*)
SI_UNIT($,.STERADIAN.)
SOLID_ANGLE_UNIT()
);
#1136=(
NAMED_UNIT(*)
PLANE_ANGLE_UNIT()
SI_UNIT($,.RADIAN.)
);
#1137=(
LENGTH_UNIT()
NAMED_UNIT(*)
SI_UNIT($,.METRE.)
);
#1138=PRODUCT_DEFINITION_SHAPE('','',#1139);
#1139=PRODUCT_DEFINITION('','',#1141,#1140);
#1140=PRODUCT_DEFINITION_CONTEXT('',#1147,'design');
#1141=PRODUCT_DEFINITION_FORMATION_WITH_SPECIFIED_SOURCE('','',#1143,
 .NOT_KNOWN.);
#1142=PRODUCT_RELATED_PRODUCT_CATEGORY('','',(#1143));
#1143=PRODUCT('Part 1','Part 1','Part 1',(#1145));
#1144=PRODUCT_CATEGORY('','');
#1145=PRODUCT_CONTEXT('',#1147,'mechanical');
#1146=APPLICATION_PROTOCOL_DEFINITION('international standard',
'ap242_managed_model_based_3d_engineering',2020,#1147);
#1147=APPLICATION_CONTEXT('managed model based 3d engineering');
ENDSEC;
END-ISO-10303-21;
